PathFileType	4	(X/Y/Z)	G:\マイドライブ\biomec\experimentalData\240725\static1.trc
DataRate	CameraRate	NumFrames	NumMarkers	Units	OrigDataRate	OrigDataStartFrame	OrigNumFrames
200.00	200.00	       6	52	mm	200.00	209	       834
Frame#	Time	handR			wrRI			wrRO			elbRI			elbRO			shRF			shRU			shRB			handL			wrLI			wrLO			elbLI			elbLO			shLF			shLU			shLB			toeR			baRI			baRO			heelR			anRI			anRO			knRI			knRO			troR			toeL			baLI			baLO			heelL			anLI			anLO			knLI			knLO			troL			head			earR			earL			clav			c7			ribR			ribL			xiph			ASISR			ASISL			PSISR			PSISL			t8			t11			L1			L3			LS			COX			
		X1	Y1	Z1	X2	Y2	Z2	X3	Y3	Z3	X4	Y4	Z4	X5	Y5	Z5	X6	Y6	Z6	X7	Y7	Z7	X8	Y8	Z8	X9	Y9	Z9	X10	Y10	Z10	X11	Y11	Z11	X12	Y12	Z12	X13	Y13	Z13	X14	Y14	Z14	X15	Y15	Z15	X16	Y16	Z16	X17	Y17	Z17	X18	Y18	Z18	X19	Y19	Z19	X20	Y20	Z20	X21	Y21	Z21	X22	Y22	Z22	X23	Y23	Z23	X24	Y24	Z24	X25	Y25	Z25	X26	Y26	Z26	X27	Y27	Z27	X28	Y28	Z28	X29	Y29	Z29	X30	Y30	Z30	X31	Y31	Z31	X32	Y32	Z32	X33	Y33	Z33	X34	Y34	Z34	X35	Y35	Z35	X36	Y36	Z36	X37	Y37	Z37	X38	Y38	Z38	X39	Y39	Z39	X40	Y40	Z40	X41	Y41	Z41	X42	Y42	Z42	X43	Y43	Z43	X44	Y44	Z44	X45	Y45	Z45	X46	Y46	Z46	X47	Y47	Z47	X48	Y48	Z48	X49	Y49	Z49	X50	Y50	Z50	X51	Y51	Z51	X52	Y52	Z52	

209	1.040	484.67044	295.07211	990.04883	485.40100	383.93494	1019.91205	526.39624	349.78687	1062.69836	568.62085	575.32788	1155.94434	510.90225	551.36383	1186.53931	603.07635	719.66077	1416.21692	541.39215	699.42285	1435.97949	497.73428	710.11267	1391.55078	502.85577	1462.88696	966.30249	498.34756	1374.30371	1002.91260	534.22864	1423.81885	1043.97583	545.25739	1196.04260	1150.23669	499.29434	1230.59058	1186.42468	600.17712	1045.62512	1406.16516	541.78461	1068.52405	1426.93518	491.10254	1043.25403	1380.18542	725.68250	730.29736	51.42351	643.40967	772.69348	48.19613	624.74554	651.84546	43.94225	438.70267	729.42505	40.18597	521.68079	770.69165	112.51836	506.65274	677.29547	102.11086	527.58246	796.24243	468.35022	548.84235	692.07166	476.42734	594.43689	708.45532	868.81415	725.70520	1024.88452	53.04627	649.85242	978.29224	50.79013	627.08282	1092.24548	47.34342	438.03687	1031.78857	38.10617	527.71527	986.04010	129.75459	504.06647	1073.41956	104.82142	518.73834	960.63116	471.25388	524.51465	1067.61804	483.88254	571.61060	1053.16846	853.69012	528.29834	884.14514	1702.95959	634.72766	801.25366	1568.15308	639.86737	959.42645	1569.56628	648.30627	886.60071	1394.56067	526.87122	888.43372	1471.47290	632.67267	778.03699	1095.53357	628.28687	999.74011	1093.59705	679.08331	886.58276	1235.53284	654.93219	778.95947	950.64886	642.15125	1000.71655	958.12793	481.31116	819.54883	999.29218	478.04437	943.01904	1000.54602	463.22250	887.32593	1261.66748	478.29730	887.67566	1137.86377	489.16309	889.94171	1080.54297	484.29764	885.07446	1034.81262	468.32733	882.52991	996.24164	438.25278	880.13257	894.18457	
210	1.045	484.63760	295.05069	990.07275	485.35330	383.89859	1019.93329	526.35712	349.77835	1062.71033	568.58228	575.29517	1155.95203	510.86829	551.34882	1186.55054	603.06958	719.66113	1416.21558	541.38318	699.40161	1435.98877	497.70807	710.09277	1391.57898	502.80334	1462.84912	966.27594	498.28360	1374.26587	1002.89886	534.19598	1423.79785	1043.94739	545.21344	1196.02344	1150.21777	499.27490	1230.56396	1186.40344	600.19055	1045.61292	1406.16516	541.74963	1068.51526	1426.93103	491.06015	1043.24097	1380.18359	725.68109	730.28522	51.42205	643.41089	772.69995	48.18678	624.75122	651.85394	43.95181	438.69226	729.43304	40.16677	521.49792	770.70282	112.91829	506.65567	677.28577	102.10583	527.57312	796.22400	468.36597	548.82422	692.04858	476.42853	594.40625	708.40436	868.82684	725.68927	1024.87036	53.05431	649.84625	978.28180	50.79259	627.09027	1092.24890	47.35155	438.05573	1031.76575	38.08752	527.70837	986.03424	129.75598	504.05777	1073.41528	104.82460	518.74390	960.63538	471.24533	524.51337	1067.60974	483.86041	571.58356	1053.12500	853.68018	528.29358	884.16150	1702.95422	634.73224	801.24341	1568.14587	639.82178	959.46088	1569.50891	648.30542	886.60596	1394.56165	526.89874	888.43475	1471.46838	632.66089	778.03003	1095.52625	628.22363	999.70135	1093.56775	679.04926	886.55536	1235.52539	654.90283	778.91254	950.65686	642.75751	1000.07971	958.34155	481.28137	819.52112	999.29767	477.98859	942.99847	1000.56036	463.22272	887.30200	1261.67053	478.25977	887.65485	1137.87268	489.14200	889.91437	1080.54211	484.25928	885.03290	1034.81970	468.29355	882.50403	996.24640	438.22998	880.08759	894.18964	
211	1.050	484.61157	295.03287	990.06854	485.31091	383.89063	1019.97668	526.33514	349.75296	1062.71704	568.55206	575.27301	1155.98169	510.82205	551.31036	1186.57422	603.09222	720.63495	1416.35071	541.35663	699.50037	1436.09253	497.70517	710.07031	1391.57373	502.75183	1462.80884	966.23016	498.24240	1374.22876	1002.87958	534.16327	1423.77356	1043.91040	545.20087	1195.99280	1150.19958	499.25012	1230.52490	1186.38684	600.14978	1045.60437	1406.12122	541.73346	1068.50415	1426.90234	491.03421	1043.23950	1380.16895	725.69617	730.30115	51.41861	643.42603	772.70099	48.16409	624.75073	651.85272	43.94382	438.71063	729.40387	40.15879	521.66766	770.70374	112.44205	506.65991	677.29462	102.09415	527.56561	796.19226	468.35782	548.83710	692.05060	476.42468	594.38043	708.36572	868.83588	725.68762	1024.88293	53.05623	649.87146	978.28204	50.78540	627.10089	1092.24609	47.35840	438.05475	1031.78174	38.06698	527.54315	985.76709	130.12695	504.06546	1073.41101	104.81531	518.73462	960.60822	471.21704	524.49139	1067.58020	483.87070	571.53918	1053.06665	853.69354	528.29498	884.18719	1702.94409	634.72345	801.27448	1568.17114	639.86664	959.47424	1569.47607	648.27179	886.59381	1394.56152	526.84967	888.44122	1471.45850	632.61353	778.01855	1095.51929	628.15765	999.64569	1093.55322	679.02496	886.53754	1235.51526	654.88617	778.88153	950.65729	642.71173	1000.04395	958.33038	481.25580	819.49023	999.29523	477.98502	942.96851	1000.53900	463.16690	887.29041	1261.67920	478.25641	887.62213	1137.86304	489.09897	889.86829	1080.55579	484.23886	885.00098	1034.80090	468.25165	882.46399	996.23395	438.19922	880.06061	894.17731	
212	1.055	484.56967	295.03040	990.08508	485.28781	383.87198	1019.99811	526.31433	349.72330	1062.73901	568.51270	575.26447	1155.98706	510.77490	551.27264	1186.59363	603.04022	719.62860	1416.22693	541.32550	699.40015	1436.01074	497.66144	710.06537	1391.59399	502.66110	1462.75513	966.19037	498.16553	1374.19849	1002.87268	534.12897	1423.74976	1043.88892	545.16199	1195.95288	1150.18921	499.13583	1230.62646	1186.35803	600.14301	1045.58899	1406.10669	541.71710	1068.48218	1426.90540	491.03421	1043.23352	1380.14917	725.67822	730.29614	51.42456	643.41803	772.70380	48.15500	624.73944	651.86005	43.93369	438.69437	729.42542	40.16557	521.50732	770.70331	112.87682	506.66235	677.28339	102.10551	527.54614	796.17871	468.37439	548.80719	692.01862	476.42188	594.33203	708.33289	868.85626	725.69727	1024.86719	53.06094	649.85596	978.30536	50.79050	627.00562	1092.26013	47.40306	438.04834	1031.79651	38.08452	527.71417	986.03455	129.73373	504.09454	1073.40466	104.84359	518.72693	960.59674	471.21844	524.49316	1067.57788	483.88086	571.50708	1053.04102	853.68347	528.28143	884.20001	1702.96277	634.70355	801.26331	1568.16943	639.87347	959.48230	1569.44861	648.27478	886.57758	1394.55212	526.83655	888.43549	1471.44812	632.55115	777.98608	1095.52112	628.11969	999.61749	1093.55090	678.98126	886.52087	1235.47937	654.85516	778.83673	950.65033	642.69025	1000.01349	958.34558	481.22296	819.45715	999.29688	477.94550	942.93341	1000.54089	463.17554	887.28729	1261.67126	478.21973	887.58990	1137.85754	489.08798	889.84949	1080.53564	484.20160	884.96027	1034.81384	468.23294	882.41193	996.22827	438.15536	880.01239	894.18842	
213	1.060	484.57544	294.98312	990.10028	485.24478	383.84509	1020.01703	526.26990	349.70016	1062.76782	568.46619	575.22668	1156.01038	510.75009	551.25098	1186.59485	603.02087	719.63507	1416.25879	541.31366	699.39661	1436.02405	497.64056	710.04895	1391.59998	502.60669	1462.70984	966.14642	498.12003	1374.16541	1002.83917	534.10559	1423.73523	1043.87012	545.12775	1195.93628	1150.16541	499.12314	1230.61133	1186.33289	600.09210	1045.56226	1406.08093	541.70361	1068.46240	1426.89136	491.03024	1043.21399	1380.14294	725.69135	730.29987	51.42426	643.41541	772.69110	48.19431	624.73254	651.85309	43.95159	438.69696	729.42529	40.17339	521.48450	770.70648	112.87305	506.65204	677.28149	102.09274	527.53137	796.14111	468.36002	548.79950	692.01569	476.43921	594.34418	708.31580	868.83582	725.69745	1024.87793	53.06543	649.86353	978.29437	50.78878	627.03516	1092.24280	47.37591	438.05728	1031.79041	38.07795	527.52283	985.75555	130.13470	504.09354	1073.41528	104.84942	518.71057	960.57861	471.21411	524.46625	1067.54565	483.88190	571.45532	1053.01282	853.68042	528.29077	884.23468	1702.95300	634.72534	801.27405	1568.21460	639.80511	959.48120	1569.49268	648.27625	886.57111	1394.55505	526.84076	888.43158	1471.48206	632.54498	777.95056	1095.52954	628.07617	999.58179	1093.55151	678.96808	886.50134	1235.47656	654.83002	778.79224	950.66412	642.67285	999.94983	958.33496	481.20468	819.41162	999.29700	477.92310	942.91229	1000.53638	463.14423	887.27008	1261.66821	478.19403	887.57703	1137.85791	489.04483	889.81598	1080.57678	484.17780	884.92371	1034.82983	468.21335	882.39349	996.23389	438.11844	879.95795	894.19849	
214	1.065	484.54382	294.95160	990.12195	485.21683	383.81519	1020.04944	526.23352	349.67816	1062.80139	568.44000	575.21967	1156.04138	510.70517	551.22900	1186.62415	603.02698	720.57794	1416.36902	541.29449	699.48224	1436.13672	497.59897	710.04370	1391.62500	502.54770	1462.66333	966.11346	498.07034	1374.13049	1002.82666	534.06793	1423.72314	1043.84692	545.11578	1195.91943	1150.14160	499.05310	1230.58167	1186.31714	600.09302	1045.57520	1406.06763	541.66724	1068.44385	1426.87390	491.01871	1043.20032	1380.13928	725.69098	730.29852	51.43883	643.43958	772.69550	48.17434	624.74567	651.86542	43.94535	438.69397	729.40833	40.16102	521.46191	770.69916	112.88174	506.66495	677.27588	102.11385	527.53613	796.11926	468.36929	548.80371	691.97870	476.43188	594.29108	708.27991	868.87219	725.69684	1024.86169	53.07283	649.84485	978.29028	50.78988	627.07361	1092.25073	47.35279	438.05872	1031.78809	38.09241	527.69910	986.03314	129.73705	504.12509	1073.40356	104.83710	518.68384	960.55621	471.20401	524.45270	1067.52539	483.88126	571.41113	1052.96899	853.68262	528.30646	884.25201	1702.95508	634.72052	801.27966	1568.20508	639.79572	959.51477	1569.42896	648.19867	886.54150	1394.52588	526.81030	888.42279	1471.44250	632.50244	777.92914	1095.52930	628.02216	999.55450	1093.54150	678.93097	886.48547	1235.47485	654.79138	778.76642	950.66125	642.62274	999.92163	958.33899	481.17358	819.39496	999.30463	477.89023	942.88495	1000.53955	463.11539	887.22791	1261.70020	478.16711	887.54138	1137.85986	489.00311	889.79462	1080.56726	484.14716	884.90381	1034.82117	468.19876	882.35443	996.22607	438.07663	879.92731	894.19934	
